<svg xmlns="http://www.w3.org/2000/svg" viewBox="0 0 376 259.579">
  <defs>
    <style>
      .cls-1 {
        fill: #fed342;
      }

      .cls-2 {
        fill: #272626;
      }

      .cls-3 {
        fill: #010101;
      }
    </style>
  </defs>
  <g id="arielle" transform="translate(-18 -8)">
    <g id="front" transform="translate(2)">
      <rect id="Rectangle_56" data-name="Rectangle 56" class="cls-1" width="376" height="259.579" transform="translate(16 8)"/>
    </g>
    <g id="Layer_1" data-name="Layer 1" transform="translate(89.387 35.963)">
      <path id="Path_26" data-name="Path 26" class="cls-2" d="M63.608,198.973l-4.283-11.66H45.27l-1.08,2.853q-.567,1.492-1.135,3.024l-1.135,3q-.552,1.477-1.011,2.783H34.66L50.012,158.28h4.664L69.9,198.973ZM52.251,168.168c-.054.155-.124.319-.2.5s-.14.342-.2.5q-.777,2.184-1.555,4.26c-.093.225-.187.466-.272.707s-.179.482-.272.707l-.909,2.658q-.466,1.321-.948,2.627l-.171.466-.1.288-.1.3-.171.513h9.9Zm.552-1.632-.451,1.423-.738-1.477h0l-.155-.412-.21-.7H53.4a.777.777,0,0,1-.086.187q-.085.155-.171.342t-.171.342a.778.778,0,0,0-.086.187Z" transform="translate(-34.66 -93.762)"/>
      <path id="Path_27" data-name="Path 27" class="cls-2" d="M103.55,198.973,94.1,182.26H89.433v16.713H83.65V158.28H95.66q5.643,0,8.97,3.109A10.307,10.307,0,0,1,107.086,165a12.437,12.437,0,0,1,.777,4.664,13.214,13.214,0,0,1-.668,4.283,10.4,10.4,0,0,1-2.029,3.521,11.917,11.917,0,0,1-2.386,2.083,12.919,12.919,0,0,1-2.954,1.407,3.074,3.074,0,0,1,.21.358,3.074,3.074,0,0,0,.21.358l.225.381a4.328,4.328,0,0,1,.225.412q.482.855.948,1.7t.979,1.733q.171.311.381.669t.412.723h0q.855,1.508,1.757,3.063t1.819,3.148l.777,1.345q.381.7.777,1.345l.365.653.451.777.428.777a5.333,5.333,0,0,0,.342.567Zm-14.077-35.1v12.849h4.851a10.253,10.253,0,0,0,3.21-.482,7.828,7.828,0,0,0,2.526-1.337,7.066,7.066,0,0,0,1.407-2.184,7.2,7.2,0,0,0,.552-2.837,5.55,5.55,0,0,0-1.834-4.431,8.05,8.05,0,0,0-5.348-1.555Z" transform="translate(-45.569 -93.762)"/>
      <path id="Path_28" data-name="Path 28" class="cls-2" d="M127.807,158.28v40.693H122V158.28Z" transform="translate(-54.108 -93.762)"/>
      <path id="Path_29" data-name="Path 29" class="cls-2" d="M134.8,198.973V158.28h20.747v5.589H140.622v11.808H154.5v5.566H140.622v12.15h15.811v5.589Z" transform="translate(-56.959 -93.762)"/>
      <path id="Path_30" data-name="Path 30" class="cls-2" d="M167,198.973V158.28h5.814v35.1h15.01v5.589Z" transform="translate(-64.129 -93.762)"/>
      <path id="Path_31" data-name="Path 31" class="cls-2" d="M196.72,198.973V158.28h5.814v35.1h15.01v5.589Z" transform="translate(-70.747 -93.762)"/>
      <path id="Path_32" data-name="Path 32" class="cls-2" d="M226.33,198.973V158.28h20.731v5.589H232.137v11.808h13.875v5.566h-13.86v12.15h15.811v5.589Z" transform="translate(-77.34 -93.762)"/>
      <path id="Path_33" data-name="Path 33" class="cls-2" d="M40.9,228.4v38.089H35.46V228.4Zm1.034,17.645L55.22,228.4h6.918L47.6,247.3l16.067,19.169h-7.2L41.935,248.82Z" transform="translate(-34.838 -109.376)"/>
      <path id="Path_34" data-name="Path 34" class="cls-2" d="M92.2,255.093H78.525c-1.469,3.482-3.374,8.061-4.571,11.217H68L83.321,227.7h4.027l15.3,38.61H96.761Zm-11.605-5.177h9.476L85.4,236.468Z" transform="translate(-42.084 -109.22)"/>
      <path id="Path_35" data-name="Path 35" class="cls-2" d="M108.685,228.4l10.4,16.72,10.4-16.72h6.537l-14.155,22.542v15.547h-5.558V250.942L102.21,228.4Z" transform="translate(-49.702 -109.376)"/>
      <path id="Path_36" data-name="Path 36" class="cls-2" d="M160.775,255.093H147.109c-1.469,3.482-3.374,8.061-4.571,11.217H136.6l15.3-38.61h4.027l15.3,38.61h-5.884Zm-11.6-5.169h9.5l-4.664-13.448Z" transform="translate(-57.359 -109.22)"/>
      <path id="Path_37" data-name="Path 37" class="cls-2" d="M197.77,228.393a9.514,9.514,0,0,1,9.258,6.265c1.555,3.754,1.034,8.115-2.775,10.836a9.878,9.878,0,0,1,5.939,9.476c0,5.721-3.754,11.489-11.054,11.489H181.92V228.37Zm-10.4,15.135h10.292c5.993,0,6.1-9.911.109-9.911h-10.4Zm0,17.591H199.13c3.7,0,5.558-3.109,5.558-6.1s-1.85-6.048-5.558-6.048H187.369Z" transform="translate(-67.451 -109.369)"/>
      <path id="Path_38" data-name="Path 38" class="cls-2" d="M242.8,255.093H229.139c-1.469,3.482-3.374,8.061-4.571,11.217H218.63l15.3-38.61h4.027l15.3,38.61h-5.884Zm-11.6-5.169h9.476l-4.664-13.44Z" transform="translate(-75.625 -109.22)"/>
      <path id="Path_39" data-name="Path 39" class="cls-2" d="M293.322,241.941c-1.555-6.156-7.408-8.387-12.251-8.387-7.462,0-13.215,5.83-13.215,13.829s5.776,13.992,13.215,13.992a12.462,12.462,0,0,0,11.979-7.734H278.941v-5.5h20.529a27.419,27.419,0,0,1-1.034,6.592v-.054c-2.612,7.3-10.455,11.979-17.373,11.979-10.673,0-18.734-8.061-18.734-19.278s8.224-19.332,18.734-19.332c7.3,0,16.122,3.754,18.135,13.883Z" transform="translate(-85.356 -109.298)"/>
      <path id="Path_40" data-name="Path 40" class="cls-2" d="M333.375,255.093H319.709c-1.469,3.482-3.374,8.061-4.571,11.217H309.2l15.3-38.61h4.027l15.3,38.61h-5.884Zm-11.6-5.169h9.476l-4.664-13.448Z" transform="translate(-95.793 -109.22)"/>
      <path id="Path_41" data-name="Path 41" class="cls-3" d="M240.572,310.582c-1.065,3.032-2.208,6.219-3.164,9.009h-1.99L229.2,300.85h2.791l4.439,13.424,3.055-8.69h2.153l3.032,8.667c1.461-4.439,3.109-9.172,4.47-13.4h2.822l-6.219,18.741h-1.928Z" transform="translate(-77.979 -125.509)"/>
      <path id="Path_42" data-name="Path 42" class="cls-3" d="M267.2,313.888H260.53c-.715,1.7-1.648,3.933-2.231,5.441h-2.9l7.462-18.819h1.967l7.47,18.85h-2.868Zm-5.667-2.526H266.2l-2.324-6.584Z" transform="translate(-83.813 -125.433)"/>
      <path id="Path_43" data-name="Path 43" class="cls-3" d="M281.2,309.99h3.109a3.234,3.234,0,1,0,0-6.46h-4.073v15.9H277.58V300.818h6.778a5.76,5.76,0,0,1,6.063,5.931,5.6,5.6,0,0,1-4.812,5.69l5.877,7h-3.475l-6.778-8.162Z" transform="translate(-88.752 -125.5)"/>
      <path id="Path_44" data-name="Path 44" class="cls-3" d="M302.249,300.86c6.086,0,9.149,4.664,9.149,9.328s-3.055,9.281-9.149,9.281H295.58V300.86Zm0,15.9a6.608,6.608,0,0,0,0-13.215h-4.011v13.215Z" transform="translate(-92.76 -125.511)"/>
      <path id="Path_45" data-name="Path 45" class="cls-3" d="M332,319.407V305.85l-2.5,3.4-2.021-1.461,5.022-7.074h2.153v18.656Z" transform="translate(-99.864 -125.48)"/>
      <path id="Path_46" data-name="Path 46" class="cls-3" d="M342.5,308.818h2.791a2.55,2.55,0,0,0,2.55-2.767c0-1.858-1.78-2.713-3.537-2.713a3.164,3.164,0,0,0-3.187,2.231l-2.417-.583a5.527,5.527,0,0,1,5.612-4.2c3,0,6.164,1.648,6.219,5.263a4.364,4.364,0,0,1-1.7,3.887,4.664,4.664,0,0,1,2.394,4.33c0,2.682-2.262,5.395-6.724,5.395-3.988,0-5.877-2.332-6.3-4.866l2.5-.451c.241,1.492,1.461,2.822,3.8,2.822,2.954,0,4.33-1.625,4.2-3.164a3.044,3.044,0,0,0-3.374-2.658H342.52Z" transform="translate(-102.248 -125.494)"/>
      <path id="Path_47" data-name="Path 47" class="cls-1" d="M108.174,75.75h3.98L101.8,101.6h-2.76L88.71,75.75h4.058l7.664,19.278Z" transform="translate(-46.696 -75.385)"/>
      <path id="Path_48" data-name="Path 48" class="cls-1" d="M121.471,79.19a13.036,13.036,0,0,1,18.617,0,13.261,13.261,0,0,1,0,18.656,13.036,13.036,0,0,1-18.617,0,13.261,13.261,0,0,1,0-18.656Zm15.959,2.651a9.491,9.491,0,0,0-6.669-2.8,9.25,9.25,0,0,0-6.6,2.8,9.437,9.437,0,0,0,0,13.347,9.25,9.25,0,0,0,6.6,2.8,9.491,9.491,0,0,0,6.669-16.145Z" transform="translate(-53.137 -75.28)"/>
      <path id="Path_49" data-name="Path 49" class="cls-1" d="M159.542,101.587V79.169H151.73V75.71h19.317v3.467h-7.773v22.41Z" transform="translate(-60.729 -75.376)"/>
      <path id="Path_50" data-name="Path 50" class="cls-1" d="M182.322,97.795H194.3v3.723H178.56V75.75h15.7v3.723h-11.94v7.26h11.66V90.5h-11.66Z" transform="translate(-66.703 -75.385)"/>
    </g>
  </g>
</svg>
