<?xml version="1.0" encoding="utf-8"?>
<!-- Generator: Adobe Illustrator 21.1.0, SVG Export Plug-In . SVG Version: 6.00 Build 0)  -->
<svg version="1.1" id="Capa_1" xmlns="http://www.w3.org/2000/svg" xmlns:xlink="http://www.w3.org/1999/xlink" x="0px" y="0px"
	 viewBox="0 0 512 512" style="enable-background:new 0 0 512 512;" xml:space="preserve">
<style type="text/css">
	.st0{fill:#EB3E4A;}
</style>
<g>
	<g>
		<path d="M460.8,51.2c-3.9-3.9-10.2-3.9-14.1,0c-3.9,3.9-3.9,10.2,0,14.1c3.9,3.9,10.2,3.9,14.1,0
			C464.7,61.5,464.7,55.1,460.8,51.2z"/>
	</g>
</g>
<g>
	<g>
		<path class="st0" d="M496.1,86.6l7.1-7.1c11.7-11.7,11.7-30.7,0-42.4L474.9,8.8c-11.7-11.7-30.7-11.7-42.4,0l-7.1,7.1l-7.1-7.1
			c-3.9-3.9-10.2-3.9-14.1,0c-3.9,3.9-3.9,10.2,0,14.1l7.1,7.1l-14.1,14.1l-7.1-7.1c-3.9-3.9-10.2-3.9-14.1,0
			c-3.9,3.9-3.9,10.2,0,14.1l7.1,7.1l-7.1,7.1c-9.2,9.2-11.2,23-5.9,34.1l-96.4,96.5c-47.3-29.6-105.5-22.6-129.9,20.7
			c-12.4,22-34.1,49.7-67.5,57.1c-18.3,4.1-34.8,13-47.6,25.9c-45.7,45.7-33.4,122.2,14.1,169.7c48.2,48.2,124.5,59.3,169.7,14.1
			c12.8-12.8,21.8-29.3,25.9-47.6c7.4-33.3,35.2-55.1,57.1-67.5c43.9-24.8,49.9-83.3,20.7-129.9l96.5-96.4
			c11.1,5.3,24.9,3.4,34.1-5.9l7.1-7.1l7.1,7.1c3.9,3.9,10.2,3.9,14.1,0c3.9-3.9,3.9-10.2,0-14.1l-7.1-7.1l14.1-14.1l7.1,7.1
			c3.9,3.9,10.2,3.9,14.1,0c3.9-3.9,3.9-10.2,0-14.1L496.1,86.6z M285.6,350.9c-25.5,14.4-57.8,40-66.8,80.5
			c-3.3,14.8-10.2,27.6-20.5,37.9C160.6,507,96.5,494.7,56.9,455.1C17.2,415.5,5.1,351.4,42.7,313.7c10.3-10.3,23-17.2,37.8-20.5
			c40.5-9,66.2-41.3,80.5-66.8c18.8-33.2,62.8-35.9,98-15.9l-60.8,60.8c-15.4-2.2-31.2,3-42.4,14.1c-19.5,19.5-19.5,51.2,0,70.7
			c19.5,19.5,51.2,19.5,70.7,0c11.2-11.2,16.3-27,14.1-42.4l60.8-60.8C321.5,288.3,318.6,332.2,285.6,350.9z M212.4,299.6
			c11.7,11.7,11.7,30.7,0,42.4c-11.7,11.7-30.7,11.7-42.4,0c-11.7-11.7-11.7-30.7,0-42.4C181.5,288.1,200.5,287.7,212.4,299.6z
			 M232.9,293.2c-1.8-2.8-4-5.4-6.4-7.8s-5-4.5-7.8-6.4L383,114.8l14.1,14.1L232.9,293.2z M489.1,65.4
			c-11.4,11.4-44.5,44.5-56.6,56.6c-3.9,3.9-10.2,3.9-14.1,0l-7.1-7.1l21.2-21.2c3.9-3.9,3.9-10.2,0-14.1c-3.9-3.9-10.2-3.9-14.1,0
			l-21.2,21.2l-7.1-7.1c-3.9-3.9-3.9-10.2,0-14.1c11.4-11.4,44.6-44.6,56.6-56.6c3.9-3.9,10.2-3.9,14.1,0l28.3,28.3
			C493,55.1,493,61.5,489.1,65.4z"/>
	</g>
</g>
<g>
	<g>
		<path class="st0" d="M141.7,426.9l-56.6-56.6c-3.9-3.9-10.2-3.9-14.1,0c-3.9,3.9-3.9,10.2,0,14.1l56.6,56.6
			c3.9,3.9,10.2,3.9,14.1,0C145.6,437.1,145.6,430.8,141.7,426.9z"/>
	</g>
</g>
</svg>
