<?xml version="1.0" encoding="utf-8"?>
<!-- Generator: Adobe Illustrator 21.1.0, SVG Export Plug-In . SVG Version: 6.00 Build 0)  -->
<svg version="1.1" id="interaction_scg" xmlns="http://www.w3.org/2000/svg" xmlns:xlink="http://www.w3.org/1999/xlink" x="0px"
	 y="0px" viewBox="0 0 376 259.5" style="enable-background:new 0 0 376 259.5;" xml:space="preserve">
<style type="text/css">
	.st0{fill:#2C3D50;}
	.st1{fill:#FFFFFF;}
	.st2{font-family:'Montserrat-Bold';}
	.st3{font-size:8px;}
</style>
<rect class="st0" width="376" height="259.5"/>
<path id="Path_2" class="st1" d="M63.7,125.4h-7.1V95.5h7.1V125.4z M57.8,124.3h4.8V96.7h-4.8V124.3z"/>
<path id="Path_3" class="st1" d="M96.1,126.6l-20.4-17v15.9h-7.1V94.3L89,111.5v-16h7.1V126.6z M69.7,124.3h4.9v-17.2l20.4,17V96.7
	h-4.9V114L69.7,96.8V124.3z"/>
<path id="Path_4" class="st1" d="M113,125.4h-7.1v-23.3h-7.1v-6.6h21.8v6.6H113C113,102.1,113,125.4,113,125.4z M107.1,124.3h4.9
	V101h7.6v-4.2H99.9v4.2h7.1L107.1,124.3L107.1,124.3z"/>
<path id="Path_5" class="st1" d="M142.3,125.4h-19V95.5h16.4v6.6h-9.3v4.2h10.8v6.5h-10.8v6h11.9L142.3,125.4L142.3,125.4z
	 M124.4,124.3h16.7V120h-11.9v-8.4H140v-4.2h-10.8v-6.5h9.3v-4.2h-14.1V124.3L124.4,124.3z"/>
<path id="Path_6" class="st1" d="M177.1,135.1h-9.5l-12.4-14.6H153v5.6h-7.1V95.5h10.5c3.3,0,6.5,1.2,8.9,3.5
	c2.3,2.2,3.6,5.2,3.6,8.4c0.1,2.4-0.5,4.9-1.8,6.9c-1.1,1.7-2.6,3.1-4.3,4.1L177.1,135.1z M168.1,133.9h6.4L160.9,118l0.7-0.4
	c1.9-0.8,3.5-2.2,4.5-4c1.1-1.9,1.7-4.1,1.6-6.3c0-2.9-1.2-5.6-3.2-7.6c-2.2-2.1-5.1-3.2-8.1-3.2h-9.5v28.2h4.9v-5.6h3.9
	L168.1,133.9z M151.8,115v-14.1h4.2c1.9-0.1,3.8,0.7,5,2.1c1.1,1.4,1.7,3.1,1.7,4.9c0.1,2-0.6,3.9-2.1,5.3c-1.7,1.3-3.7,2-5.9,1.9
	L151.8,115z M153,113.8h1.9c1.8,0.1,3.7-0.4,5.1-1.5c1.2-1.2,1.8-2.8,1.6-4.5c0.1-1.5-0.4-3-1.4-4.1c-1.1-1.2-2.6-1.7-4.2-1.6h-3
	V113.8z"/>
<path id="Path_7" class="st1" d="M200.6,125.4h-7.8l-1.9-3.8h-13.2l-4.1,10.4l-2.7-3l-2.2-2.3l15.8-32.4L200.6,125.4z M180.8,115
	h6.8l-3.5-7L180.8,115z"/>
<path id="Path_8" class="st1" d="M202.9,121.4c-1.4-1.4-2.5-3.1-3.2-4.9c-2.4-5.8-1.2-12.5,3.2-16.9c1.4-1.4,3.1-2.5,4.9-3.3
	c1.9-0.8,3.9-1.2,5.9-1.3c2.7,0,5.3,0.7,7.7,2c2.2,1.3,4.1,3.1,5.5,5.2l0.3,0.5l-5.6,4l-0.3-0.5c-0.9-1.3-2.1-2.5-3.5-3.2
	c-1.2-0.7-2.6-1.1-4.1-1.1c-2.2,0-4.2,0.9-5.7,2.5c-1.5,1.7-2.4,3.9-2.3,6.1c0,2.2,0.8,4.4,2.3,6s3.5,2.4,5.7,2.4c2,0,3.8-0.7,5.3-2
	s2.5-3.1,2.9-5l0.1-0.5h7.2v0.6c-0.9,7.9-7.6,13.8-15.5,13.7C209.7,125.9,205.8,124.3,202.9,121.4z"/>
<path id="Path_9" class="st1" d="M242.8,125.4h-7.1v-23.3h-7.1v-6.6h21.7v6.6h-7.6L242.8,125.4z"/>
<path id="Path_10" class="st1" d="M260.2,125.4H253V95.5h7.1L260.2,125.4L260.2,125.4z"/>
<path id="Path_11" class="st1" d="M273.2,124.7c-1.8-0.8-3.5-1.9-5-3.2c-4.5-4.5-5.8-11.2-3.3-17c0.8-1.8,1.9-3.5,3.3-4.9
	s3-2.5,4.9-3.2c7.9-3.3,17,0.4,20.3,8.3c2.4,5.8,1.1,12.4-3.2,16.8c-1.4,1.4-3.1,2.5-4.9,3.2C281.4,126.3,277,126.3,273.2,124.7z
	 M273.4,104.3c-3.2,3.4-3.2,8.7,0,12.2c1.5,1.6,3.6,2.5,5.9,2.4c2.2,0,4.2-0.9,5.8-2.4c3.2-3.4,3.2-8.7,0-12.2
	c-3-3.2-8-3.3-11.3-0.4C273.6,104.2,273.4,104.3,273.4,104.3L273.4,104.3z"/>
<path id="Path_12" class="st1" d="M325.7,126.6l-20.4-17v15.9h-7.1V94.3l20.5,17.2v-16h7.1L325.7,126.6z M324.5,124.1l-25.3-27.3"/>
<path id="Path_13" class="st1" d="M60,166.4c-1.4-1.4-2.5-3.1-3.2-4.9c-1.6-3.9-1.6-8.2,0-12.1c0.7-1.8,1.8-3.5,3.2-4.9
	s3.1-2.5,4.9-3.3c1.9-0.8,3.9-1.2,5.9-1.3c2.7,0,5.3,0.7,7.7,2c2.2,1.3,4.1,3.1,5.5,5.2l0.3,0.5l-5.6,4l-0.3-0.5
	c-0.9-1.3-2.1-2.5-3.5-3.2c-1.2-0.7-2.6-1.1-4.1-1.1c-2.2,0-4.2,0.9-5.7,2.5c-1.5,1.7-2.4,3.9-2.3,6.1c0,2.2,0.8,4.4,2.3,6
	s3.5,2.4,5.7,2.4c2,0,3.8-0.7,5.3-2s2.5-3.1,2.9-5l0.1-0.5h7.2v0.6c-0.9,7.8-7.5,13.7-15.4,13.7C66.8,170.9,62.8,169.3,60,166.4z"/>
<path id="Path_14" class="st1" d="M98,169.7c-1.8-0.8-3.5-1.9-5-3.2c-4.5-4.5-5.8-11.2-3.3-17c0.8-1.8,1.9-3.5,3.3-4.9
	s3.1-2.5,5-3.2c7.9-3.2,16.9,0.5,20.2,8.4c2.4,5.7,1.1,12.3-3.3,16.7c-1.4,1.4-3.1,2.5-4.9,3.2C106.2,171.4,101.8,171.4,98,169.7z
	 M98.1,149.4c-3.2,3.4-3.2,8.7,0,12.2c1.5,1.6,3.6,2.5,5.9,2.4c2.2,0,4.2-0.9,5.8-2.4c3.2-3.4,3.2-8.7,0-12.2c-3-3.2-8-3.3-11.3-0.4
	C98.4,149.1,98.3,149.3,98.1,149.4L98.1,149.4z"/>
<path id="Path_15" class="st1" d="M141.6,170.5h-18.7v-29.9h7.1v23.3h11.5L141.6,170.5L141.6,170.5z"/>
<path id="Path_16" class="st1" d="M162.9,170.5h-18.7v-29.9h7.1v23.3h11.6L162.9,170.5z"/>
<path id="Path_17" class="st1" d="M184.4,170.5h-19v-29.9h16.5v6.6h-9.3v4.2h10.8v6.5h-10.8v6h11.8V170.5z M166.6,169.3h16.7"/>
<path id="Path_18" class="st1" d="M191.2,166.4c-1.4-1.4-2.5-3.1-3.2-4.9c-2.4-5.8-1.2-12.5,3.2-16.9c1.4-1.4,3.1-2.5,4.9-3.3
	c1.9-0.8,3.9-1.2,5.9-1.3c2.7,0,5.3,0.7,7.7,2c2.2,1.3,4.1,3.1,5.5,5.2l0.3,0.5l-5.6,4l-0.3-0.5c-0.9-1.3-2.1-2.5-3.5-3.2
	c-1.2-0.7-2.6-1.1-4.1-1.1c-2.2,0-4.2,0.9-5.7,2.5c-1.5,1.7-2.4,3.9-2.3,6.1c0,2.2,0.8,4.4,2.3,6s3.5,2.4,5.7,2.4c2,0,3.8-0.7,5.3-2
	s2.5-3.1,2.9-5l0.1-0.5h7.2v0.6c-0.9,7.8-7.5,13.7-15.4,13.7C198,170.9,194.1,169.4,191.2,166.4z"/>
<path id="Path_19" class="st1" d="M231.1,170.5H224v-23.3h-7.1v-6.6h21.7v6.6H231L231.1,170.5z"/>
<path id="Path_20" class="st1" d="M248.5,170.5h-7.1v-29.9h7.1V170.5z"/>
<path id="Path_21" class="st1" d="M266.2,171.6l-16.4-31h8.2l8.3,16.1l7.8-16.1h7.5L266.2,171.6z"/>
<path id="Path_22" class="st1" d="M301.5,170.5h-19v-29.9h16.4v6.6h-9.3v4.2h10.8v6.5h-10.8v6h11.8L301.5,170.5L301.5,170.5z"/>
<text transform="matrix(1 0 0 1 56.391 83.539)" class="st1 st2 st3">THE</text>
<path id="Path_23" class="st1" d="M169.2,57.8"/>
</svg>
