<svg id="interaction_scg" data-name="interaction scg" xmlns="http://www.w3.org/2000/svg" viewBox="0 0 376 259.516">
  <defs>
    <style>
      .cls-1 {
        fill: #86be40;
      }

      .cls-2, .cls-3 {
        fill: #fff;
      }

      .cls-3 {
        font-size: 8px;
        font-family: Montserrat-Bold, Montserrat;
        font-weight: 700;
      }
    </style>
  </defs>
  <rect id="Rectangle_55" data-name="Rectangle 55" class="cls-1" width="376" height="259.516"/>
  <path id="Path_2" data-name="Path 2" class="cls-2" d="M70.013,135.916H62.9V106h7.113Zm-5.943-1.171h4.772V107.171H64.07Z" transform="translate(-6.266 -10.484)"/>
  <path id="Path_3" data-name="Path 3" class="cls-2" d="M103.652,136.949,83.213,119.919v15.859H76.1V104.6l20.439,17.211V105.862h7.113Zm-26.381-2.343h4.862V117.4l20.439,17.031V107.033H97.709v17.3L77.271,107.123Z" transform="translate(-7.581 -10.345)"/>
  <path id="Path_4" data-name="Path 4" class="cls-2" d="M123.926,135.916h-7.113V112.578H109.7V106h21.789v6.578h-7.563v23.338Zm-5.943-1.171h4.862V111.407h7.563v-4.235H110.87v4.235h7.113Z" transform="translate(-10.928 -10.484)"/>
  <path id="Path_5" data-name="Path 5" class="cls-2" d="M155.9,135.916h-19V106h16.387v6.578h-9.274v4.235h10.8V123.3h-10.8v6.037H155.9Zm-17.828-1.171h16.657V130.51H142.843v-8.38h10.8v-4.235h-10.8v-6.488h9.274v-4.235H137.98v27.574Z" transform="translate(-13.638 -10.484)"/>
  <path id="Path_6" data-name="Path 6" class="cls-2" d="M193.243,145.558H183.7l-12.425-14.6h-2.161v5.587H162V106h10.534a12.663,12.663,0,0,1,8.914,3.514,11.386,11.386,0,0,1,3.6,8.38,12.516,12.516,0,0,1-1.8,6.938,11.684,11.684,0,0,1-4.322,4.055Zm-9-1.171h6.393l-13.6-15.949.72-.36a9.615,9.615,0,0,0,4.5-3.965,11.785,11.785,0,0,0,1.621-6.308,10.43,10.43,0,0,0-3.241-7.569,11.347,11.347,0,0,0-8.1-3.154H163.08v28.2h4.862V129.7h3.872Zm-16.3-18.923V111.407h4.232a6.291,6.291,0,0,1,5.042,2.073,7.475,7.475,0,0,1,1.711,4.866,6.866,6.866,0,0,1-2.071,5.316A8.633,8.633,0,0,1,171,125.554Zm1.17-1.171H171a7.535,7.535,0,0,0,5.132-1.532,5.529,5.529,0,0,0,1.621-4.505,6.212,6.212,0,0,0-1.351-4.145,5.249,5.249,0,0,0-4.232-1.622h-3.061Z" transform="translate(-16.138 -10.484)"/>
  <path id="Path_7" data-name="Path 7" class="cls-2" d="M219.264,135.778H211.43l-1.891-3.785H196.3l-4.052,10.363-2.7-2.974L187.3,137.04l15.757-32.44Zm-19.808-10.453H206.3l-3.511-7.029Z" transform="translate(-18.658 -10.345)"/>
  <path id="Path_8" data-name="Path 8" class="cls-2" d="M224.906,131.8a15.866,15.866,0,0,1-3.241-4.866A15.556,15.556,0,0,1,224.906,110a16.139,16.139,0,0,1,4.862-3.334,15.3,15.3,0,0,1,5.943-1.262,16.131,16.131,0,0,1,7.653,1.982,15.284,15.284,0,0,1,5.492,5.226l.27.451-5.582,3.965-.27-.541a10.118,10.118,0,0,0-3.511-3.244,8.029,8.029,0,0,0-4.052-1.081,7.572,7.572,0,0,0-5.672,2.523,8.976,8.976,0,0,0-2.341,6.127,8.754,8.754,0,0,0,2.341,6.037,7.823,7.823,0,0,0,5.672,2.433,8.074,8.074,0,0,0,5.312-1.982,8.449,8.449,0,0,0,2.881-5.046l.09-.451h7.2v.631a15.437,15.437,0,0,1-15.487,13.7A14.383,14.383,0,0,1,224.906,131.8Z" transform="translate(-21.96 -10.424)"/>
  <path id="Path_9" data-name="Path 9" class="cls-2" d="M268.126,135.916h-7.113V112.578H253.9V106h21.7v6.578h-7.563Z" transform="translate(-25.293 -10.484)"/>
  <path id="Path_10" data-name="Path 10" class="cls-2" d="M288.2,135.916H281V106h7.113v29.916Zm-1.171-28.745Z" transform="translate(-27.992 -10.484)"/>
  <path id="Path_11" data-name="Path 11" class="cls-2" d="M302.349,135.151a18.1,18.1,0,0,1-4.952-3.244,15.553,15.553,0,0,1-3.331-17.031,15.111,15.111,0,0,1,3.331-4.866,14.39,14.39,0,0,1,4.862-3.244,15.483,15.483,0,0,1,17.017,25.141,15.852,15.852,0,0,1-4.862,3.244A15.566,15.566,0,0,1,302.349,135.151Zm.18-20.365a9.008,9.008,0,0,0,0,12.165,7.88,7.88,0,0,0,5.853,2.433,8.184,8.184,0,0,0,5.762-2.433,9.008,9.008,0,0,0,0-12.165,8.042,8.042,0,0,0-11.255-.36C302.8,114.606,302.619,114.7,302.529,114.787Z" transform="translate(-29.173 -10.439)"/>
  <path id="Path_12" data-name="Path 12" class="cls-2" d="M358.652,136.949l-20.439-17.031v15.859H331.1V104.6l20.529,17.211V105.862h7.113Zm-1.171-2.523-25.3-27.3" transform="translate(-32.983 -10.345)"/>
  <path id="Path_13" data-name="Path 13" class="cls-2" d="M66.107,181.8a15.865,15.865,0,0,1-3.241-4.866,15.6,15.6,0,0,1,0-12.075A14.861,14.861,0,0,1,66.107,160a16.139,16.139,0,0,1,4.862-3.334,15.3,15.3,0,0,1,5.943-1.262,16.131,16.131,0,0,1,7.653,1.982,15.284,15.284,0,0,1,5.492,5.226l.27.451-5.582,3.965-.27-.541a10.118,10.118,0,0,0-3.511-3.244,8.03,8.03,0,0,0-4.052-1.081,7.572,7.572,0,0,0-5.672,2.523,8.976,8.976,0,0,0-2.341,6.127,8.755,8.755,0,0,0,2.341,6.037,7.823,7.823,0,0,0,5.672,2.433,8.074,8.074,0,0,0,5.312-1.982,8.449,8.449,0,0,0,2.881-5.046l.09-.451h7.2v.631a15.488,15.488,0,0,1-15.4,13.7A14.581,14.581,0,0,1,66.107,181.8Z" transform="translate(-6.141 -15.369)"/>
  <path id="Path_14" data-name="Path 14" class="cls-2" d="M107.749,185.057a18.1,18.1,0,0,1-4.952-3.244,15.553,15.553,0,0,1-3.331-17.031,15.111,15.111,0,0,1,3.331-4.866,13.908,13.908,0,0,1,4.952-3.244,15.471,15.471,0,0,1,16.927,25.141,15.851,15.851,0,0,1-4.862,3.244,14.813,14.813,0,0,1-12.065,0Zm.18-20.275a9.008,9.008,0,0,0,0,12.165,7.88,7.88,0,0,0,5.852,2.433,8.184,8.184,0,0,0,5.762-2.433,9.008,9.008,0,0,0,0-12.165,8.042,8.042,0,0,0-11.255-.36c-.09.09-.18.27-.36.36Z" transform="translate(-9.787 -15.38)"/>
  <path id="Path_15" data-name="Path 15" class="cls-2" d="M155.228,185.916H136.5V156h7.113v23.338h11.525v6.578Zm-1.17-1.171Z" transform="translate(-13.598 -15.429)"/>
  <path id="Path_16" data-name="Path 16" class="cls-2" d="M178.828,185.916H160.1V156h7.113v23.338h11.615Zm-1.171-1.171Z" transform="translate(-15.949 -15.429)"/>
  <path id="Path_17" data-name="Path 17" class="cls-2" d="M202.7,185.916h-19V156h16.477v6.578H190.9v4.235h10.8V173.3H190.9v6.037h11.8Zm-17.828-1.171h16.657" transform="translate(-18.3 -15.429)"/>
  <path id="Path_18" data-name="Path 18" class="cls-2" d="M211.906,181.8a15.865,15.865,0,0,1-3.241-4.866A15.556,15.556,0,0,1,211.906,160a16.14,16.14,0,0,1,4.862-3.334,15.3,15.3,0,0,1,5.943-1.262,16.131,16.131,0,0,1,7.653,1.982,15.284,15.284,0,0,1,5.492,5.226l.27.451-5.582,3.965-.27-.541a10.118,10.118,0,0,0-3.512-3.244,8.029,8.029,0,0,0-4.052-1.081,7.572,7.572,0,0,0-5.672,2.523,8.976,8.976,0,0,0-2.341,6.127,8.754,8.754,0,0,0,2.341,6.037,7.823,7.823,0,0,0,5.672,2.433,8.074,8.074,0,0,0,5.312-1.982,8.449,8.449,0,0,0,2.881-5.046l.09-.451h7.2v.631a15.488,15.488,0,0,1-15.4,13.7A14.248,14.248,0,0,1,211.906,181.8Z" transform="translate(-20.665 -15.369)"/>
  <path id="Path_19" data-name="Path 19" class="cls-2" d="M255.126,185.916h-7.113V162.578H240.9V156h21.7v6.578h-7.563Z" transform="translate(-23.998 -15.429)"/>
  <path id="Path_20" data-name="Path 20" class="cls-2" d="M275.213,185.916H268.1V156h7.113Z" transform="translate(-26.707 -15.429)"/>
  <path id="Path_21" data-name="Path 21" class="cls-2" d="M293.887,187,277.5,156h8.193l8.284,16.13L301.81,156h7.473Zm13.6-29.916Z" transform="translate(-27.644 -15.429)"/>
  <path id="Path_22" data-name="Path 22" class="cls-2" d="M332.8,185.916h-19V156h16.387v6.578h-9.274v4.235h10.8V173.3h-10.8v6.037h11.795v6.578Zm-1.171-1.171Z" transform="translate(-31.26 -15.429)"/>
  <text id="THE" class="cls-3" transform="translate(56.391 83.539)"><tspan x="0" y="0">THE</tspan></text>
  <path id="Path_23" data-name="Path 23" class="cls-2" d="M187.9,64.1" transform="translate(-18.718 -6.34)"/>
</svg>
