<svg xmlns="http://www.w3.org/2000/svg" viewBox="0 0 70.13 69.766">
  <defs>
    <style>
      .cls-1 {
        fill: #fb3a64;
      }
    </style>
  </defs>
  <g id="Kids_These_Days" data-name="Kids These Days" transform="translate(0 -0.295)">
    <path id="Path_75" data-name="Path 75" class="cls-1" d="M91.889,614.317h-.011L90.624,610.8h-.515l-1.169,3.517h-.021L87.9,610.8h-.6l1.319,4.2h.558l1.179-3.442h.021L91.632,615h.558l1.244-4.2h-.547Z" transform="translate(-77.94 -545.049)"/>
    <path id="Path_76" data-name="Path 76" class="cls-1" d="M157.5,609.8a2.209,2.209,0,1,0,1.855,3.517l-.4-.332a1.7,1.7,0,0,1-1.4.75,1.561,1.561,0,0,1-1.587-1.587H159.5v-.386A1.941,1.941,0,0,0,157.5,609.8Zm-1.555,1.855a1.554,1.554,0,0,1,1.522-1.362,1.421,1.421,0,0,1,1.458,1.362Z" transform="translate(-138.739 -544.156)"/>
    <path id="Path_77" data-name="Path 77" class="cls-1" d="M210.952,588.463a1.95,1.95,0,0,0-1.683.847h-.021V585.9H208.7v6.873h.547v-.74h.021a1.937,1.937,0,0,0,1.683.847,2.209,2.209,0,1,0,0-4.417Zm0,3.924a1.715,1.715,0,1,1,0-3.431,1.716,1.716,0,0,1,0,3.431Z" transform="translate(-186.324 -522.819)"/>
    <path id="Path_78" data-name="Path 78" class="cls-1" d="M255.44,642.3a.44.44,0,0,0,0,.879.44.44,0,0,0,.021-.879Z" transform="translate(-227.66 -573.172)"/>
    <path id="Path_79" data-name="Path 79" class="cls-1" d="M271.807,591.4a.407.407,0,1,0,.407.407.422.422,0,0,0-.407-.407Z" transform="translate(-242.301 -527.729)"/>
    <rect id="Rectangle_69" data-name="Rectangle 69" class="cls-1" width="0.547" height="4.203" transform="translate(29.227 65.751)"/>
    <path id="Path_80" data-name="Path 80" class="cls-1" d="M293.429,610.869c0-.44.5-.675.89-.675a1.03,1.03,0,0,1,.986.59l.493-.289a1.535,1.535,0,0,0-1.48-.793,1.3,1.3,0,0,0-1.437,1.212c0,1.6,2.487.793,2.487,1.951a.883.883,0,0,1-.965.772,1.37,1.37,0,0,1-1.222-.7l-.482.322a1.856,1.856,0,0,0,1.694.858,1.356,1.356,0,0,0,1.522-1.3C295.927,611.126,293.429,612.005,293.429,610.869Z" transform="translate(-261.318 -544.067)"/>
    <path id="Path_81" data-name="Path 81" class="cls-1" d="M338.509,609.8a2.209,2.209,0,1,0,2.209,2.209A2.135,2.135,0,0,0,338.509,609.8Zm0,3.924a1.716,1.716,0,1,1,1.662-1.715,1.624,1.624,0,0,1-1.662,1.715Z" transform="translate(-300.243 -544.156)"/>
    <path id="Path_82" data-name="Path 82" class="cls-1" d="M395.613,589.22h-.021a1.937,1.937,0,0,0-1.683-.847,2.209,2.209,0,1,0,0,4.417,1.963,1.963,0,0,0,1.683-.847h.021v.74h.547V585.8h-.547Zm-1.7,3.077a1.716,1.716,0,0,1,0-3.431,1.715,1.715,0,1,1,0,3.431Z" transform="translate(-349.703 -522.729)"/>
    <path id="Path_83" data-name="Path 83" class="cls-1" d="M441.24,642.3a.442.442,0,0,0-.44.44.44.44,0,1,0,.461-.44Z" transform="translate(-393.539 -573.172)"/>
    <path id="Path_84" data-name="Path 84" class="cls-1" d="M454.1,609.8a2.209,2.209,0,1,0,1.844,3.517l-.4-.332a1.7,1.7,0,0,1-1.415.75,1.561,1.561,0,0,1-1.587-1.587h3.527v-.386A1.91,1.91,0,0,0,454.1,609.8Zm-1.555,1.855a1.554,1.554,0,0,1,1.522-1.362,1.421,1.421,0,0,1,1.458,1.362Z" transform="translate(-403.538 -544.156)"/>
    <path id="Path_85" data-name="Path 85" class="cls-1" d="M502.629,610.869c0-.44.5-.675.89-.675a1.03,1.03,0,0,1,.986.59l.493-.289a1.535,1.535,0,0,0-1.48-.793,1.3,1.3,0,0,0-1.437,1.212c0,1.6,2.487.793,2.487,1.951a.883.883,0,0,1-.965.772,1.37,1.37,0,0,1-1.222-.7l-.482.322a1.856,1.856,0,0,0,1.694.858,1.356,1.356,0,0,0,1.522-1.3C505.127,611.126,502.629,612.005,502.629,610.869Z" transform="translate(-448.088 -544.067)"/>
    <path id="Path_86" data-name="Path 86" class="cls-1" d="M90.841,530.687a.749.749,0,0,1-.257.1,1.237,1.237,0,0,1-.279.032,1.043,1.043,0,0,1-.536-.129,1.52,1.52,0,0,1-.386-.354l-.482.375a1.422,1.422,0,0,0,.6.525,2.051,2.051,0,0,0,.8.139,2.139,2.139,0,0,0,.525-.064,1.749,1.749,0,0,0,.461-.193,1.051,1.051,0,0,0,.332-.354,1,1,0,0,0,.118-.525.922.922,0,0,0-.1-.45,1.024,1.024,0,0,0-.257-.311,1.386,1.386,0,0,0-.375-.193,3.469,3.469,0,0,0-.45-.118,3.233,3.233,0,0,1-.343-.075,2.3,2.3,0,0,1-.289-.107.86.86,0,0,1-.2-.139.275.275,0,0,1-.075-.193.386.386,0,0,1,.064-.214.574.574,0,0,1,.161-.161,1.019,1.019,0,0,1,.225-.1,1.043,1.043,0,0,1,.247-.032.87.87,0,0,1,.461.118.836.836,0,0,1,.3.311l.5-.332a1.117,1.117,0,0,0-.515-.5,1.737,1.737,0,0,0-1.212-.075,1.316,1.316,0,0,0-.429.2,1.021,1.021,0,0,0-.311.332.982.982,0,0,0-.118.461.825.825,0,0,0,.107.45.8.8,0,0,0,.279.289,1.749,1.749,0,0,0,.407.182c.15.043.322.086.482.129a2.868,2.868,0,0,1,.289.075,1.01,1.01,0,0,1,.247.107.613.613,0,0,1,.172.161.459.459,0,0,1,.064.236.5.5,0,0,1-.064.247A.613.613,0,0,1,90.841,530.687Z" transform="translate(-79.368 -470.758)"/>
    <path id="Path_87" data-name="Path 87" class="cls-1" d="M126.817,529.387a2.08,2.08,0,0,0-.139-.761,1.7,1.7,0,0,0-.386-.6,1.727,1.727,0,0,0-.6-.4,1.93,1.93,0,0,0-.772-.139,1.674,1.674,0,0,0-.718.161,1.835,1.835,0,0,0-.579.45h-.011v-.525H123v5.372h.6v-2.4h.011a1.4,1.4,0,0,0,.536.525,1.6,1.6,0,0,0,.858.214,1.774,1.774,0,0,0,.708-.139,1.922,1.922,0,0,0,.579-.4,1.918,1.918,0,0,0,.525-1.362Zm-.74.525a1.2,1.2,0,0,1-.665.708,1.4,1.4,0,0,1-1.061,0,1.265,1.265,0,0,1-.665-.708,1.636,1.636,0,0,1,0-1.061,1.2,1.2,0,0,1,.665-.708,1.4,1.4,0,0,1,1.061,0,1.266,1.266,0,0,1,.665.708A1.636,1.636,0,0,1,126.077,529.912Z" transform="translate(-109.812 -470.669)"/>
    <path id="Path_88" data-name="Path 88" class="cls-1" d="M168.658,528.048a1.741,1.741,0,0,0-.611-.386,2.248,2.248,0,0,0-1.544,0,1.909,1.909,0,0,0-.611.386,1.726,1.726,0,0,0-.4.6,2.131,2.131,0,0,0,0,1.544,1.891,1.891,0,0,0,.4.6,1.742,1.742,0,0,0,.611.386,2.248,2.248,0,0,0,1.544,0,1.909,1.909,0,0,0,.611-.386,1.727,1.727,0,0,0,.4-.6,2.131,2.131,0,0,0,0-1.544A1.726,1.726,0,0,0,168.658,528.048Zm-.182,1.9a1.2,1.2,0,0,1-.665.708,1.4,1.4,0,0,1-1.061,0,1.266,1.266,0,0,1-.665-.708,1.637,1.637,0,0,1,0-1.061,1.2,1.2,0,0,1,.665-.708,1.4,1.4,0,0,1,1.061,0,1.266,1.266,0,0,1,.665.708A1.636,1.636,0,0,1,168.475,529.945Z" transform="translate(-147.622 -470.703)"/>
    <path id="Path_89" data-name="Path 89" class="cls-1" d="M212.974,531.11v-2.23a1.893,1.893,0,0,0-.086-.6,1.526,1.526,0,0,0-.247-.472,1.2,1.2,0,0,0-.429-.3,1.71,1.71,0,0,0-.611-.107,1.866,1.866,0,0,0-.418.054,1.393,1.393,0,0,0-.343.15,1.8,1.8,0,0,0-.268.214.831.831,0,0,0-.172.257h-.011a2.712,2.712,0,0,0-.011-.3c0-.1-.011-.193-.011-.289H209.8c0,.118,0,.247.011.4s.011.3.011.461v2.766h.6v-1.758a2.566,2.566,0,0,1,.064-.568,1.271,1.271,0,0,1,.2-.44.992.992,0,0,1,.343-.289,1.034,1.034,0,0,1,.5-.1.7.7,0,0,1,.622.268,1.22,1.22,0,0,1,.2.718v2.166Z" transform="translate(-187.306 -470.591)"/>
    <path id="Path_90" data-name="Path 90" class="cls-1" d="M249.063,530.237a.922.922,0,0,0-.1-.45,1.023,1.023,0,0,0-.257-.311,1.39,1.39,0,0,0-.375-.193,3.488,3.488,0,0,0-.45-.118,3.231,3.231,0,0,1-.343-.075,2.293,2.293,0,0,1-.289-.107.858.858,0,0,1-.2-.139.275.275,0,0,1-.075-.193.386.386,0,0,1,.064-.214.574.574,0,0,1,.161-.161,1.016,1.016,0,0,1,.225-.1,1.043,1.043,0,0,1,.247-.032.87.87,0,0,1,.461.118.836.836,0,0,1,.3.311l.5-.332a1.117,1.117,0,0,0-.515-.5,1.737,1.737,0,0,0-1.212-.075,1.316,1.316,0,0,0-.429.2,1.022,1.022,0,0,0-.311.332.982.982,0,0,0-.118.461.824.824,0,0,0,.107.45.8.8,0,0,0,.279.289,1.748,1.748,0,0,0,.407.182c.15.043.322.086.482.129a2.871,2.871,0,0,1,.289.075,1.014,1.014,0,0,1,.247.107.615.615,0,0,1,.172.161.459.459,0,0,1,.064.236.417.417,0,0,1-.075.247.469.469,0,0,1-.182.172.75.75,0,0,1-.257.1,1.234,1.234,0,0,1-.279.032,1.044,1.044,0,0,1-.536-.129,1.52,1.52,0,0,1-.386-.354l-.482.365a1.422,1.422,0,0,0,.6.525,2.052,2.052,0,0,0,.8.139,2.138,2.138,0,0,0,.525-.064,1.751,1.751,0,0,0,.461-.193,1.05,1.05,0,0,0,.332-.354A1.082,1.082,0,0,0,249.063,530.237Z" transform="translate(-219.803 -470.758)"/>
    <path id="Path_91" data-name="Path 91" class="cls-1" d="M281.546,531.178a1.909,1.909,0,0,0,.611-.386,1.726,1.726,0,0,0,.4-.6,2.131,2.131,0,0,0,0-1.544,1.889,1.889,0,0,0-.4-.6,1.741,1.741,0,0,0-.611-.386,2.247,2.247,0,0,0-1.544,0,1.715,1.715,0,0,0-1.008.986,2.13,2.13,0,0,0,0,1.544,1.89,1.89,0,0,0,.4.6,1.742,1.742,0,0,0,.611.386A2.248,2.248,0,0,0,281.546,531.178Zm-1.7-.815a1.175,1.175,0,0,1-.257-.429,1.637,1.637,0,0,1,0-1.061,1.2,1.2,0,0,1,.665-.708,1.4,1.4,0,0,1,1.061,0,1.266,1.266,0,0,1,.665.708,1.636,1.636,0,0,1,0,1.061,1.2,1.2,0,0,1-.665.708,1.4,1.4,0,0,1-1.061,0A1.314,1.314,0,0,1,279.842,530.364Z" transform="translate(-248.953 -470.703)"/>
    <path id="Path_92" data-name="Path 92" class="cls-1" d="M325.216,528.054l.043-.611-.129-.032c-.043,0-.086-.011-.129-.011a1.866,1.866,0,0,0-.418.054,1.393,1.393,0,0,0-.343.15,1.8,1.8,0,0,0-.268.214.832.832,0,0,0-.172.257h-.011a2.7,2.7,0,0,0-.011-.3c0-.1-.011-.193-.011-.289H323.2c0,.118,0,.247.011.4s.011.3.011.461v2.766h.6v-1.758a1.766,1.766,0,0,1,.247-.986.927.927,0,0,1,.8-.354A1.114,1.114,0,0,1,325.216,528.054Z" transform="translate(-288.548 -470.591)"/>
    <path id="Path_93" data-name="Path 93" class="cls-1" d="M348.7,527.9a1.606,1.606,0,0,0-.547-.375,1.955,1.955,0,0,0-.7-.129,1.929,1.929,0,0,0-.74.139,1.813,1.813,0,0,0-.59.386,1.7,1.7,0,0,0-.386.6,2.1,2.1,0,0,0-.139.772,2.149,2.149,0,0,0,.129.74,1.645,1.645,0,0,0,.365.6,1.716,1.716,0,0,0,.579.407,1.891,1.891,0,0,0,.761.15,2.26,2.26,0,0,0,.89-.161,1.857,1.857,0,0,0,.708-.579l-.45-.354a1.463,1.463,0,0,1-.483.407,1.427,1.427,0,0,1-.665.139,1.061,1.061,0,0,1-.45-.1,1.452,1.452,0,0,1-.365-.247,1.088,1.088,0,0,1-.247-.375,1.261,1.261,0,0,1-.107-.44h2.916V529.3a2.338,2.338,0,0,0-.129-.8A1.84,1.84,0,0,0,348.7,527.9Zm-2.444,1.072a1.117,1.117,0,0,1,1.179-1.019,1,1,0,0,1,1.083,1.019Z" transform="translate(-308.546 -470.591)"/>
    <path id="Path_94" data-name="Path 94" class="cls-1" d="M387.524,513.529a1.6,1.6,0,0,0,.858-.214,1.33,1.33,0,0,0,.536-.525h.011v.643h.6V507.6h-.6v2.745h-.011a1.693,1.693,0,0,0-.579-.45,1.673,1.673,0,0,0-.718-.161,2.1,2.1,0,0,0-.772.139,1.726,1.726,0,0,0-.6.4,1.7,1.7,0,0,0-.386.6,2.158,2.158,0,0,0,0,1.512,1.7,1.7,0,0,0,.386.6,1.553,1.553,0,0,0,.579.4A1.7,1.7,0,0,0,387.524,513.529Zm-1.072-1.372a1.636,1.636,0,0,1,0-1.061,1.2,1.2,0,0,1,.665-.708,1.4,1.4,0,0,1,1.061,0,1.265,1.265,0,0,1,.665.708,1.636,1.636,0,0,1,0,1.061,1.2,1.2,0,0,1-.665.708,1.4,1.4,0,0,1-1.061,0A1.2,1.2,0,0,1,386.451,512.157Z" transform="translate(-344.369 -452.914)"/>
    <path id="Path_95" data-name="Path 95" class="cls-1" d="M451.911,512.879h.011a1.4,1.4,0,0,0,.536.525,1.6,1.6,0,0,0,.858.214,1.773,1.773,0,0,0,.708-.139,1.922,1.922,0,0,0,.579-.4,2.058,2.058,0,0,0,.386-.6,2.158,2.158,0,0,0,0-1.512,1.7,1.7,0,0,0-.386-.6,1.726,1.726,0,0,0-.6-.4,1.93,1.93,0,0,0-.772-.139,1.673,1.673,0,0,0-.718.161,1.835,1.835,0,0,0-.579.45h-.021V507.7H451.3v5.822h.6Zm.086-1.694a1.2,1.2,0,0,1,.665-.708,1.4,1.4,0,0,1,1.061,0,1.266,1.266,0,0,1,.665.708,1.636,1.636,0,0,1,0,1.061,1.2,1.2,0,0,1-.665.708,1.4,1.4,0,0,1-1.061,0,1.266,1.266,0,0,1-.665-.708A1.637,1.637,0,0,1,452,511.185Z" transform="translate(-402.913 -453.003)"/>
    <path id="Path_96" data-name="Path 96" class="cls-1" d="M492.63,533.157q.1-.193.193-.418l1.748-4.439h-.654l-1.072,2.831h-.021L491.7,528.3H491l1.5,3.635-.247.675a1.513,1.513,0,0,1-.236.429.528.528,0,0,1-.429.161,1.814,1.814,0,0,1-.236-.011.653.653,0,0,1-.193-.054l-.075.525a.77.77,0,0,0,.268.075,2.42,2.42,0,0,0,.279.011,1.34,1.34,0,0,0,.461-.075,1.021,1.021,0,0,0,.322-.2A1.07,1.07,0,0,0,492.63,533.157Z" transform="translate(-438.357 -471.394)"/>
    <path id="Path_97" data-name="Path 97" class="cls-1" d="M165.537,10.009l1.662-1.5,2.916,6.229h1.64l-3.474-7.173L174.458,2H172.7l-6.776,6.2L167.242,2H165.9l-2.7,12.737h1.34Z" transform="translate(-145.702 -1.523)"/>
    <path id="Path_98" data-name="Path 98" class="cls-1" d="M262.247,13.6,262,14.737h5.457L267.7,13.6h-2.059l2.209-10.454h2.059L270.159,2H264.7l-.247,1.147h2.059L264.305,13.6Z" transform="translate(-233.909 -1.523)"/>
    <path id="Path_99" data-name="Path 99" class="cls-1" d="M339.939,14.737a5.35,5.35,0,0,0,2.348-.5A5.994,5.994,0,0,0,344.1,12.85a7.558,7.558,0,0,0,1.287-2.026,12.919,12.919,0,0,0,.793-2.434,9.767,9.767,0,0,0,.236-2.434,5.251,5.251,0,0,0-.44-2.026,3.233,3.233,0,0,0-1.222-1.4A3.846,3.846,0,0,0,342.63,2h-4.139L335.8,14.737ZM339.6,3.147h2.8A2.356,2.356,0,0,1,344.72,4.52a6.177,6.177,0,0,1,.107,3.871,8.18,8.18,0,0,1-1.758,3.86,3.779,3.779,0,0,1-2.906,1.362h-2.788Z" transform="translate(-299.797 -1.523)"/>
    <path id="Path_100" data-name="Path 100" class="cls-1" d="M452.137,11.864a2.449,2.449,0,0,0,1.169,1.179,4.1,4.1,0,0,0,1.887.4,4.824,4.824,0,0,0,1.555-.257,5.242,5.242,0,0,0,1.426-.718,4.833,4.833,0,0,0,1.126-1.115,3.753,3.753,0,0,0,.643-1.447,2.8,2.8,0,0,0-.021-1.555,2.551,2.551,0,0,0-.7-1.072,4.215,4.215,0,0,0-1.126-.751c-.44-.2-.868-.4-1.308-.568-.354-.15-.708-.3-1.04-.44a4.591,4.591,0,0,1-.868-.482,1.765,1.765,0,0,1-.536-.622,1.284,1.284,0,0,1-.075-.847,2.451,2.451,0,0,1,1.136-1.64,3.026,3.026,0,0,1,.9-.375,4.543,4.543,0,0,1,1.008-.118,2.855,2.855,0,0,1,1.072.214,2.283,2.283,0,0,1,.815.568,2.026,2.026,0,0,1,.461.858,2.31,2.31,0,0,1,.011,1.083h1.179L461.625.51h-1.179l-.279,1.329a2.064,2.064,0,0,0-.986-1.158A3.444,3.444,0,0,0,457.551.3a5.538,5.538,0,0,0-1.512.214,5.082,5.082,0,0,0-1.383.643,4.748,4.748,0,0,0-1.094,1.029,3.576,3.576,0,0,0-.633,1.394,2.683,2.683,0,0,0,.021,1.469,2.361,2.361,0,0,0,.675,1,4.468,4.468,0,0,0,1.094.686c.418.182.847.354,1.276.515.354.139.708.289,1.061.429a3.7,3.7,0,0,1,.911.536,1.8,1.8,0,0,1,.568.751,1.721,1.721,0,0,1,.032,1.051,2.643,2.643,0,0,1-.418.976,3.091,3.091,0,0,1-.718.729,3.44,3.44,0,0,1-.933.461,3.608,3.608,0,0,1-1.072.161,3.262,3.262,0,0,1-1.2-.214,2.753,2.753,0,0,1-.943-.611,2.46,2.46,0,0,1-.568-.933,2.282,2.282,0,0,1-.043-1.2h-1.147l-.826,3.871h1.147Z" transform="translate(-402.377 0)"/>
    <path id="Path_101" data-name="Path 101" class="cls-1" d="M77.189,164.9l-.247,1.137H82.4l.247-1.137H80.578L82.8,154.437h2.745l-.686,3.163H86l.922-4.3h-9.1l-.922,4.3h1.147l.675-3.163h2.734L79.248,164.9Z" transform="translate(-68.655 -136.601)"/>
    <path id="Path_102" data-name="Path 102" class="cls-1" d="M197.9,153.3l-1.222,5.7H191.22l1.222-5.7h-1.351L188.4,166.037h1.34l1.233-5.9h5.457l-1.233,5.9h1.329L199.24,153.3Z" transform="translate(-168.2 -136.601)"/>
    <path id="Path_103" data-name="Path 103" class="cls-1" d="M314.2,154.437l.236-1.137H306.3l-2.7,12.737h8.138l.247-1.137h-6.8l1-4.76H311.2l.247-1.136h-5.018l.976-4.567Z" transform="translate(-271.049 -136.601)"/>
    <path id="Path_104" data-name="Path 104" class="cls-1" d="M419.326,160.631l-.826,3.881h1.147l.279-1.362a2.449,2.449,0,0,0,1.169,1.179,4.094,4.094,0,0,0,1.887.4,4.824,4.824,0,0,0,1.555-.257,5.243,5.243,0,0,0,1.426-.718,4.834,4.834,0,0,0,1.126-1.115,3.753,3.753,0,0,0,.643-1.447,2.581,2.581,0,0,0-.718-2.638,4.215,4.215,0,0,0-1.126-.751c-.44-.2-.868-.4-1.308-.568-.354-.15-.708-.3-1.04-.44a4.593,4.593,0,0,1-.868-.482,1.765,1.765,0,0,1-.536-.622,1.284,1.284,0,0,1-.075-.847,2.451,2.451,0,0,1,1.136-1.64,3.025,3.025,0,0,1,.9-.375,4.543,4.543,0,0,1,1.008-.118,2.855,2.855,0,0,1,1.072.214,2.283,2.283,0,0,1,.815.568,2.026,2.026,0,0,1,.461.858,2.31,2.31,0,0,1,.011,1.083h1.179l.772-3.645h-1.169l-.279,1.329a2.064,2.064,0,0,0-.986-1.158,3.312,3.312,0,0,0-1.63-.375,5.537,5.537,0,0,0-1.512.214,5.081,5.081,0,0,0-1.383.643,4.3,4.3,0,0,0-1.083,1.029,3.576,3.576,0,0,0-.633,1.394,2.682,2.682,0,0,0,.021,1.469,2.362,2.362,0,0,0,.675,1,4.132,4.132,0,0,0,1.094.675c.418.182.847.354,1.276.515.354.139.708.289,1.061.429a3.7,3.7,0,0,1,.911.536,1.8,1.8,0,0,1,.568.751,1.72,1.72,0,0,1,.032,1.051,2.642,2.642,0,0,1-.418.976,3.091,3.091,0,0,1-.718.729,3.44,3.44,0,0,1-.933.461,3.608,3.608,0,0,1-1.072.161,3.261,3.261,0,0,1-1.2-.214,2.754,2.754,0,0,1-.944-.611,2.46,2.46,0,0,1-.568-.933,2.282,2.282,0,0,1-.043-1.2Z" transform="translate(-373.63 -135.065)"/>
    <path id="Path_105" data-name="Path 105" class="cls-1" d="M534.2,166.037h8.138l.236-1.137h-6.787l.986-4.76H541.8l.236-1.136H537.02l.976-4.567h6.8l.247-1.137h-8.148Z" transform="translate(-476.925 -136.601)"/>
    <path id="Path_106" data-name="Path 106" class="cls-1" d="M107.587,316.833a5.994,5.994,0,0,0,1.812-1.383,7.558,7.558,0,0,0,1.287-2.026,12.916,12.916,0,0,0,.793-2.434,9.768,9.768,0,0,0,.236-2.434,5.252,5.252,0,0,0-.44-2.026,3.233,3.233,0,0,0-1.222-1.4,3.939,3.939,0,0,0-2.123-.525h-4.139L101.1,317.337h4.139A5.35,5.35,0,0,0,107.587,316.833Zm-2.691-11.1h2.8a2.356,2.356,0,0,1,2.327,1.372,6.177,6.177,0,0,1,.107,3.871,8.179,8.179,0,0,1-1.758,3.86,3.8,3.8,0,0,1-2.906,1.362h-2.788Z" transform="translate(-90.26 -271.679)"/>
    <path id="Path_107" data-name="Path 107" class="cls-1" d="M196.756,317.337h1.437L196.649,304.6h-1.812L187.9,317.337h1.447l1.93-3.645h5.05Zm-4.846-4.825,3.538-6.572.74,6.572Z" transform="translate(-167.754 -271.679)"/>
    <path id="Path_108" data-name="Path 108" class="cls-1" d="M310.5,305.737h1.04l.236-1.137h-3.592l-.247,1.137H309l-3.217,4.8-1.2-4.8h1.061l.236-1.137h-3.592l-.247,1.137h1.051l1.737,6.1-.922,4.353h-2.059l-.247,1.147h5.457l.247-1.147h-2.059l.911-4.353Z" transform="translate(-269.263 -271.679)"/>
    <path id="Path_109" data-name="Path 109" class="cls-1" d="M392.088,313.747a3.752,3.752,0,0,0,.643-1.447,2.582,2.582,0,0,0-.718-2.638,4.216,4.216,0,0,0-1.126-.751c-.44-.2-.868-.4-1.308-.568-.354-.15-.708-.3-1.04-.44a4.592,4.592,0,0,1-.868-.482,1.764,1.764,0,0,1-.536-.622,1.283,1.283,0,0,1-.075-.847,2.476,2.476,0,0,1,.418-.976,2.821,2.821,0,0,1,.708-.675,3.025,3.025,0,0,1,.9-.375,4.543,4.543,0,0,1,1.008-.118,2.855,2.855,0,0,1,1.072.214,2.284,2.284,0,0,1,.815.568,2.026,2.026,0,0,1,.461.858,2.31,2.31,0,0,1,.011,1.083h1.179l.772-3.645h-1.169l-.279,1.329a2.064,2.064,0,0,0-.986-1.158,3.312,3.312,0,0,0-1.63-.375,5.538,5.538,0,0,0-1.512.214,5.082,5.082,0,0,0-1.383.643,4.748,4.748,0,0,0-1.094,1.029,3.576,3.576,0,0,0-.633,1.394,2.683,2.683,0,0,0,.021,1.469,2.362,2.362,0,0,0,.675,1,4.131,4.131,0,0,0,1.094.675c.418.182.847.354,1.276.515.354.139.708.289,1.061.429a3.7,3.7,0,0,1,.911.536,1.8,1.8,0,0,1,.568.751,1.721,1.721,0,0,1,.032,1.051,2.643,2.643,0,0,1-.418.976,2.859,2.859,0,0,1-.718.718,3.44,3.44,0,0,1-.933.461,3.608,3.608,0,0,1-1.072.161,3.262,3.262,0,0,1-1.2-.214,2.753,2.753,0,0,1-.943-.611,2.461,2.461,0,0,1-.568-.933,2.282,2.282,0,0,1-.043-1.2h-1.137l-.826,3.881h1.147l.279-1.362a2.449,2.449,0,0,0,1.169,1.179,4.245,4.245,0,0,0,1.887.407,4.823,4.823,0,0,0,1.555-.257,5.241,5.241,0,0,0,1.426-.718A4.677,4.677,0,0,0,392.088,313.747Z" transform="translate(-342.382 -269.965)"/>
    <path id="Path_110" data-name="Path 110" class="cls-1" d="M601.147,53.8l-.247,1.147h5.457L606.6,53.8Z" transform="translate(-536.474 -47.769)"/>
    <path id="Path_111" data-name="Path 111" class="cls-1" d="M70.7,54.947h2.059L73,53.8H67.547L67.3,54.947h3.4Z" transform="translate(-60.084 -47.769)"/>
    <path id="Path_112" data-name="Path 112" class="cls-1" d="M0,360.637H5.457L5.7,359.5H.247Z" transform="translate(0 -320.693)"/>
    <path id="Path_113" data-name="Path 113" class="cls-1" d="M538.8,360.637h5.457l.247-1.137h-5.468Z" transform="translate(-481.032 -320.693)"/>
  </g>
</svg>
