<?xml version="1.0" encoding="utf-8"?>
<!-- Generator: Adobe Illustrator 21.1.0, SVG Export Plug-In . SVG Version: 6.00 Build 0)  -->
<svg version="1.1" id="Capa_1" xmlns="http://www.w3.org/2000/svg" xmlns:xlink="http://www.w3.org/1999/xlink" x="0px" y="0px"
	 viewBox="0 0 60 60" style="enable-background:new 0 0 60 60;" xml:space="preserve">
<style type="text/css">
	.st0{fill:#EB3E4A;}
</style>
<g>
	<path class="st0" d="M42,10c-2.2,0-4,1.8-4,4v1.3L7,25.1C6.7,23.3,5.3,22,3.5,22C1.6,22,0,23.6,0,25.5v9C0,36.4,1.6,38,3.5,38
		c1.8,0,3.2-1.3,3.5-3.1l2.1,0.7c-0.3,0.3-0.6,0.8-0.7,1.2c-0.6,1.8,0.4,3.7,2.2,4.3L22,44.8h0c0.3,0.1,0.7,0.2,1,0.2
		c1.4,0,2.8-0.9,3.2-2.4c0.2-0.5,0.2-1.1,0.1-1.6L38,44.7V46c0,2.2,1.8,4,4,4s4-1.8,4-4V14C46,11.8,44.2,10,42,10z M24.3,42
		c-0.2,0.7-1,1.1-1.8,0.9l-11.4-3.7c-0.7-0.2-1.1-1-0.9-1.8c0.2-0.7,1-1.1,1.8-0.9l11.4,3.7C24.2,40.5,24.6,41.3,24.3,42z M5,34.5
		C5,35.3,4.3,36,3.5,36S2,35.3,2,34.5v-9C2,24.7,2.7,24,3.5,24S5,24.7,5,25.5v0.2v8.7V34.5z M7,32.9v-5.7l31-9.8v25.3L7,32.9z
		 M44,46c0,1.1-0.9,2-2,2s-2-0.9-2-2v-0.6V14.6V14c0-1.1,0.9-2,2-2s2,0.9,2,2V46z"/>
	<path class="st0" d="M55,29h-1c-0.6,0-1,0.4-1,1s0.4,1,1,1h1c0.6,0,1-0.4,1-1S55.6,29,55,29z"/>
	<path class="st0" d="M50,31h1c0.6,0,1-0.4,1-1s-0.4-1-1-1h-1c-0.6,0-1,0.4-1,1S49.4,31,50,31z"/>
	<path class="st0" d="M59,29h-1c-0.6,0-1,0.4-1,1s0.4,1,1,1h1c0.6,0,1-0.4,1-1S59.6,29,59,29z"/>
	<path class="st0" d="M52.8,16.5c0.3,0,0.5-0.1,0.7-0.3l0.7-0.7c0.4-0.4,0.4-1,0-1.4s-1-0.4-1.4,0l-0.7,0.7c-0.4,0.4-0.4,1,0,1.4
		C52.3,16.4,52.6,16.5,52.8,16.5z"/>
	<path class="st0" d="M55.7,13.7c0.3,0,0.5-0.1,0.7-0.3l0.7-0.7c0.4-0.4,0.4-1,0-1.4s-1-0.4-1.4,0L55,12c-0.4,0.4-0.4,1,0,1.4
		C55.1,13.6,55.4,13.7,55.7,13.7z"/>
	<path class="st0" d="M50,19.4c0.3,0,0.5-0.1,0.7-0.3l0.7-0.7c0.4-0.4,0.4-1,0-1.4s-1-0.4-1.4,0l-0.7,0.7c-0.4,0.4-0.4,1,0,1.4
		C49.5,19.3,49.7,19.4,50,19.4z"/>
	<path class="st0" d="M50.6,23.1l-0.9,0.3c-0.5,0.2-0.8,0.7-0.6,1.3c0.1,0.4,0.5,0.7,0.9,0.7c0.1,0,0.2,0,0.3-0.1l0.9-0.3
		c0.5-0.2,0.8-0.7,0.6-1.3S51.2,22.9,50.6,23.1z"/>
	<path class="st0" d="M53.8,24.1c0.1,0,0.2,0,0.3-0.1l0.9-0.3c0.5-0.2,0.8-0.7,0.6-1.3s-0.7-0.8-1.3-0.6l-0.9,0.3
		c-0.5,0.2-0.8,0.7-0.6,1.3C53,23.8,53.4,24.1,53.8,24.1z"/>
	<path class="st0" d="M56.6,22.1c0.1,0.4,0.5,0.7,0.9,0.7c0.1,0,0.2,0,0.3-0.1l0.9-0.3c0.5-0.2,0.8-0.7,0.6-1.3
		c-0.2-0.5-0.7-0.8-1.3-0.6l-0.9,0.3C56.8,21.1,56.5,21.6,56.6,22.1z"/>
	<path class="st0" d="M56.4,46.6c-0.4-0.4-1-0.4-1.4,0s-0.4,1,0,1.4l0.7,0.7c0.2,0.2,0.5,0.3,0.7,0.3s0.5-0.1,0.7-0.3
		c0.4-0.4,0.4-1,0-1.4L56.4,46.6z"/>
	<path class="st0" d="M53.5,43.8c-0.4-0.4-1-0.4-1.4,0s-0.4,1,0,1.4l0.7,0.7c0.2,0.2,0.5,0.3,0.7,0.3s0.5-0.1,0.7-0.3
		c0.4-0.4,0.4-1,0-1.4L53.5,43.8z"/>
	<path class="st0" d="M50.7,40.9c-0.4-0.4-1-0.4-1.4,0s-0.4,1,0,1.4L50,43c0.2,0.2,0.5,0.3,0.7,0.3s0.5-0.1,0.7-0.3
		c0.4-0.4,0.4-1,0-1.4L50.7,40.9z"/>
	<path class="st0" d="M53.5,37.8l0.9,0.3c0.1,0,0.2,0.1,0.3,0.1c0.4,0,0.8-0.3,0.9-0.7c0.2-0.5-0.1-1.1-0.6-1.3L54.1,36
		c-0.5-0.2-1.1,0.1-1.3,0.6S53,37.7,53.5,37.8z"/>
	<path class="st0" d="M51.3,35l-0.9-0.3c-0.5-0.2-1.1,0.1-1.3,0.6s0.1,1.1,0.6,1.3l0.9,0.3c0.1,0,0.2,0.1,0.3,0.1
		c0.4,0,0.8-0.3,0.9-0.7C52.1,35.7,51.8,35.2,51.3,35z"/>
	<path class="st0" d="M58.9,37.5l-0.9-0.3c-0.5-0.2-1.1,0.1-1.3,0.6c-0.2,0.5,0.1,1.1,0.6,1.3l0.9,0.3c0.1,0,0.2,0.1,0.3,0.1
		c0.4,0,0.8-0.3,0.9-0.7C59.7,38.3,59.4,37.7,58.9,37.5z"/>
</g>
</svg>
